<?xml version="1.0" encoding="utf-8"?>
<!-- Generator: Adobe Illustrator 28.1.0, SVG Export Plug-In . SVG Version: 6.00 Build 0)  -->
<svg version="1.1" id="phone" xmlns="http://www.w3.org/2000/svg" xmlns:xlink="http://www.w3.org/1999/xlink" x="0px" y="0px"
	 viewBox="0 0 5.7 5.7" style="enable-background:new 0 0 5.7 5.7;" xml:space="preserve">
<style type="text/css">
	.st0{fill:#004645;}
</style>
<path class="st0" d="M2.8,5.7C1.3,5.7,0,4.4,0,2.8S1.3,0,2.8,0l0,0c1.6,0,2.8,1.3,2.8,2.8S4.4,5.7,2.8,5.7z M2.5,2.1
	c0,0-0.2-0.8-0.3-0.9C2.1,1.1,2,1.1,1.8,1.1c-0.1,0-0.6,0.1-0.7,0.7C1.1,2.4,1.5,3.1,2,3.6s1.2,0.9,1.7,0.9s0.7-0.5,0.8-0.7
	c0-0.2,0-0.3-0.2-0.4C4.2,3.4,3.4,3.2,3.4,3.2L3.1,3.5c-0.5-0.2-0.9-0.6-1.1-1L2.5,2.1L2.5,2.1L2.5,2.1z"/>
</svg>
