<?xml version="1.0" encoding="utf-8"?>
<!-- Generator: Adobe Illustrator 28.1.0, SVG Export Plug-In . SVG Version: 6.00 Build 0)  -->
<svg version="1.1" id="tel" xmlns="http://www.w3.org/2000/svg" xmlns:xlink="http://www.w3.org/1999/xlink" x="0px" y="0px"
	 viewBox="0 0 28.3 28.3" style="enable-background:new 0 0 28.3 28.3;" xml:space="preserve">
<style type="text/css">
	.st0{fill:#004645;}
</style>
<path class="st0" d="M15.6,20.5c0,0.3-0.3,0.6-0.6,0.6h-1.6c-0.3,0-0.6-0.3-0.6-0.6c0-0.3,0.3-0.6,0.6-0.6H15
	C15.3,19.9,15.6,20.2,15.6,20.5z M28.3,14.2c0,7.8-6.3,14.2-14.2,14.2C6.3,28.3,0,22,0,14.2C0,6.3,6.3,0,14.2,0c0,0,0,0,0,0
	C22,0,28.3,6.3,28.3,14.2z M12.5,5.8c0.1,0.5,0.1,0.8,0.2,1c0.1,0.2,0.1,0.3,0.2,0.3c0,0,0.1,0.1,0.3,0.1c0.2,0,0.5,0,1,0
	c0.5,0,0.8,0,1,0c0.2,0,0.3-0.1,0.3-0.1c0,0,0.1-0.1,0.2-0.3c0.1-0.2,0.1-0.5,0.2-1c0-0.1,0-0.1-0.1-0.1c-0.5,0-1,0-1.6,0h-0.1
	c-0.6,0-1.1,0-1.6,0c0,0,0,0,0,0C12.5,5.7,12.4,5.7,12.5,5.8z M20.3,11.8c0-1.3,0-2.3-0.1-3.1c-0.1-0.8-0.3-1.5-0.9-2
	c-0.5-0.5-1.2-0.8-2-0.9c-0.1,0-0.2,0.1-0.2,0.2l0,0l0,0c-0.1,0.4-0.1,0.8-0.2,1.1c-0.1,0.3-0.2,0.6-0.5,0.9c-0.3,0.2-0.6,0.4-1,0.4
	c-0.3,0-0.7,0-1.2,0c-0.5,0-0.9,0-1.2,0c-0.3,0-0.7-0.2-1-0.4c-0.3-0.2-0.4-0.5-0.5-0.9c-0.1-0.3-0.1-0.7-0.2-1.1l0,0l0,0l0,0
	c0-0.1-0.1-0.2-0.2-0.2c-0.8,0.1-1.5,0.3-2,0.9c-0.5,0.5-0.8,1.2-0.9,2C8,9.5,8,10.5,8,11.8v4.8c0,1.3,0,2.3,0.1,3.1
	c0.1,0.8,0.3,1.5,0.9,2c0.5,0.5,1.2,0.8,2,0.9c0.8,0.1,1.8,0.1,3.1,0.1h0.1c1.3,0,2.3,0,3.1-0.1c0.8-0.1,1.5-0.3,2-0.9
	c0.5-0.5,0.8-1.2,0.9-2c0.1-0.8,0.1-1.8,0.1-3.1V11.8z"/>
</svg>
